# Motion Analysis HTR (source:MACFileLib v1.10)
[Header]
# KeyWord<space>Value<CR>
FileType htr
DataType HTRS
FileVersion 1
NumSegments 41
NumFrames 4
DataFrameRate 30
EulerRotationOrder ZYX
CalibrationUnits mm
RotationUnits Degrees
GlobalAxisofGravity Y
BoneLengthAxis Y
ScaleFactor 1.00
[SegmentNames&Hierarchy]
# ObjectName<tab>ParentObjectName<CR>
Hips	GLOBAL
Spine	Hips
Spine1	Spine
Spine2	Spine1
Neck	Spine2
Head	Neck
HeadTop_End	Head
LeftShoulder	Spine2
LeftArm	LeftShoulder
LeftForeArm	LeftArm
LeftHand	LeftForeArm
LeftHandIndex1	LeftHand
LeftHandIndex2	LeftHandIndex1
LeftHandIndex3	LeftHandIndex2
LeftHandIndex4	LeftHandIndex3
LeftHandThumb1	LeftHand
LeftHandThumb2	LeftHandThumb1
LeftHandThumb3	LeftHandThumb2
LeftHandThumb4	LeftHandThumb3
RightShoulder	Spine2
RightArm	RightShoulder
RightForeArm	RightArm
RightHand	RightForeArm
RightHandIndex1	RightHand
RightHandIndex2	RightHandIndex1
RightHandIndex3	RightHandIndex2
RightHandIndex4	RightHandIndex3
RightHandThumb1	RightHand
RightHandThumb2	RightHandThumb1
RightHandThumb3	RightHandThumb2
RightHandThumb4	RightHandThumb3
LeftUpLeg	Hips
LeftLeg	LeftUpLeg
LeftFoot	LeftLeg
LeftToeBase	LeftFoot
LeftToe_End	LeftToeBase
RightUpLeg	Hips
RightLeg	RightUpLeg
RightFoot	RightLeg
RightToeBase	RightFoot
RightToe_End	RightToeBase
[BasePosition]
# ObjectName<tab>Tx<tab>Ty<tab>Tz<tab>Rx<tab>Ry<tab>Rz<tab>BoneLength<CR>
Hips	10.843260	822.336530	-12.690015	97.234374	-43.527032	174.849775	3.937008
Spine	4.324737	0.000000	146.524372	-0.442183	9.379665	7.284196	3.937008
Spine1	0.476847	-0.000012	103.725081	-0.871372	2.187278	0.991217	3.937009
Spine2	3.027155	-0.000007	100.849966	-0.856348	2.202505	0.983497	3.937009
Neck	2.464486	0.000000	316.849807	4.558038	0.082407	13.220577	3.937009
Head	19.208952	0.000000	114.089235	-1.036836	8.371496	20.364578	3.937008
HeadTop_End	66.694439	0.603790	369.924862	-0.000000	0.000000	-0.000000	3.937007
LeftShoulder	-27.056324	109.128627	267.327386	-8.565021	1.115038	3.547030	3.937008
LeftArm	12.156755	138.949097	-90.169079	-54.766019	-56.609800	4.454988	3.937009
LeftForeArm	-22.856521	322.461693	-1.836662	-0.302170	-0.322459	-100.929973	3.937007
LeftHand	6.704860	280.135322	1.833648	-15.846243	2.068338	-9.074463	3.937005
LeftHandIndex1	0.000496	181.096966	-0.000534	-45.798740	0.257689	3.384679	41.837211
LeftHandIndex2	-0.000038	41.837230	-0.000153	-86.015313	6.505421	5.935432	3.937006
LeftHandIndex3	0.583954	38.302139	-0.980529	-52.157137	2.263406	3.625446	48.636157
LeftHandIndex4	-0.000343	48.636150	-0.000610	-0.000000	0.000001	-0.000000	3.937006
LeftHandThumb1	38.593987	62.739667	-32.070364	-5.518769	-6.008672	-11.751710	3.937005
LeftHandThumb2	29.216023	50.601241	-29.214383	10.158932	7.276710	43.024143	3.937005
LeftHandThumb3	33.539138	58.090932	-33.538490	27.449478	-0.419794	8.105151	3.937006
LeftHandThumb4	21.745217	37.663562	-21.743805	0.000000	-0.000000	0.000000	3.937006
RightShoulder	-27.056286	-109.128618	267.326928	-4.685218	2.959488	13.044747	3.937008
RightArm	12.156795	-138.949052	-90.168787	53.058048	-45.757452	41.653591	3.937008
RightForeArm	-26.341428	-322.196183	-1.718978	0.301654	-0.307495	100.556042	3.937007
RightHand	3.692093	-280.191534	1.808625	5.808632	-7.900957	19.147129	3.937008
RightHandIndex1	-1.954288	-181.043850	0.004425	45.112084	-0.559612	-2.574045	3.937008
RightHandIndex2	-0.530930	-49.162130	0.001984	87.701702	4.310797	-5.291269	-43.013796
RightHandIndex3	-0.139179	-43.013899	0.000000	50.415822	1.243528	-3.418275	3.937006
RightHandIndex4	-0.403557	-37.222897	-0.262985	0.000003	-0.000001	0.000000	3.937008
RightHandThumb1	36.574477	-63.444746	-33.035354	2.187272	-3.531242	4.616755	3.937007
RightHandThumb2	38.019288	-43.170311	-30.958323	-13.410386	5.627328	-41.222229	3.937008
RightHandThumb3	38.604741	-49.688269	-40.804830	-27.734995	0.774354	-18.849507	3.937009
RightHandThumb4	29.049298	-31.083600	-23.540151	-0.000000	0.000000	-0.000000	3.937007
LeftUpLeg	8.584090	130.259025	-71.382379	14.394360	-34.691706	7.410785	3.937006
LeftLeg	31.445686	1.243190	-357.658221	-6.832922	58.391776	-12.949990	3.937007
LeftFoot	-57.092365	-1.117859	-401.736289	-12.911916	-21.418936	-8.391425	3.937008
LeftToeBase	167.567879	12.843742	-168.310219	0.000000	-1.594029	0.000001	3.937008
LeftToe_End	133.766076	1.147575	3.990080	-0.000000	0.000000	-0.000003	3.937007
RightUpLeg	8.584076	-130.259035	-71.382379	-25.668216	-24.284313	-10.276783	3.937008
RightLeg	31.445660	-1.243134	-357.658356	-20.790917	57.727156	-15.597428	3.937008
RightFoot	-57.092412	1.117859	-401.736472	27.286299	-24.702836	-7.771982	3.937008
RightToeBase	167.567885	-12.843706	-168.310244	0.000000	-0.012977	-0.000000	3.937010
RightToe_End	133.766079	-1.147614	3.990084	-0.000000	-0.000000	-0.000001	3.937010
[Hips]
# Tx<tab>Ty<tab>Tz<tab>Rx<tab>Ry<tab>Rz<tab>BoneScaleFactor<CR>
12	120.211713	-47.741224	535.270908	-10.416890	0.833926	-19.697339	1.000000
13	138.328969	-66.313152	574.221486	-11.172639	0.574217	-20.055145	1.000000
14	152.703758	-79.173074	608.541436	-11.571530	0.577603	-20.319593	1.000000
15	161.009344	-86.169256	637.523049	-11.676682	0.888367	-20.702147	1.000000
[Spine]
# Tx<tab>Ty<tab>Tz<tab>Rx<tab>Ry<tab>Rz<tab>BoneScaleFactor<CR>
12	-0.000015	-0.000038	-0.000011	-1.975446	3.567012	-2.014627	1.000000
13	-0.000014	-0.000038	-0.000065	-2.324373	5.307884	-2.298608	1.000000
14	-0.000015	0.000000	-0.000011	-2.470602	6.823338	-2.258602	1.000000
15	-0.000033	-0.000076	0.000000	-2.393136	7.797927	-1.928414	1.000000
[Spine1]
# Tx<tab>Ty<tab>Tz<tab>Rx<tab>Ry<tab>Rz<tab>BoneScaleFactor<CR>
12	0.000010	0.000012	-0.000008	-4.088936	5.610231	-3.993076	1.000000
13	0.000010	0.000012	-0.000061	-5.160151	7.609451	-4.591902	1.000000
14	-0.000000	0.000012	-0.000024	-6.269955	9.507855	-4.637257	1.000000
15	-0.000010	-0.000064	0.000061	-6.998526	10.935477	-4.019364	1.000000
[Spine2]
# Tx<tab>Ty<tab>Tz<tab>Rx<tab>Ry<tab>Rz<tab>BoneScaleFactor<CR>
12	0.000019	0.000007	0.000069	-3.836597	5.711469	-4.353193	1.000000
13	-0.000037	-0.000012	0.000031	-4.845982	7.710886	-5.046122	1.000001
14	-0.000040	-0.000031	0.000030	-5.877443	9.623963	-5.152155	1.000000
15	-0.000001	0.000122	-0.000023	-6.498627	11.088674	-4.548106	1.000000
[Neck]
# Tx<tab>Ty<tab>Tz<tab>Rx<tab>Ry<tab>Rz<tab>BoneScaleFactor<CR>
12	-0.000000	0.000000	0.000181	2.870093	-9.764466	7.209352	1.000000
13	-0.000037	0.000000	0.000473	2.154962	-10.366875	7.876580	1.000001
14	-0.000039	-0.000038	0.000161	1.903451	-10.568041	8.009772	1.000000
15	0.000038	-0.000114	0.000105	2.076076	-10.235238	7.710323	1.000000
[Head]
# Tx<tab>Ty<tab>Tz<tab>Rx<tab>Ry<tab>Rz<tab>BoneScaleFactor<CR>
12	-0.000079	0.000000	-0.000017	-9.880452	-10.975400	21.138221	1.000000
13	0.000010	0.000038	0.000060	-9.949189	-12.872661	21.723597	1.000001
14	-0.000085	0.000038	0.000101	-10.045338	-14.304979	21.246733	1.000000
15	-0.000041	0.000000	-0.000017	-9.872163	-14.481467	20.020283	1.000000
[HeadTop_End]
# Tx<tab>Ty<tab>Tz<tab>Rx<tab>Ry<tab>Rz<tab>BoneScaleFactor<CR>
12	-0.000076	0.000019	0.000153	0.000000	0.000000	0.000000	1.000000
13	0.000012	0.000020	0.000585	0.000000	-0.000000	0.000000	1.000001
14	-0.000086	0.000019	0.000097	0.000000	-0.000001	0.000001	1.000000
15	-0.000071	0.000038	0.000333	-0.000000	-0.000001	0.000000	1.000000
[LeftShoulder]
# Tx<tab>Ty<tab>Tz<tab>Rx<tab>Ry<tab>Rz<tab>BoneScaleFactor<CR>
12	-0.000034	-0.000064	-0.000117	12.950825	11.687120	-24.054151	1.000000
13	-0.000052	0.000048	0.000142	14.460110	12.025715	-24.717843	1.000001
14	-0.000026	-0.000059	-0.000121	16.062810	11.828470	-23.890113	1.000000
15	-0.000034	-0.000026	-0.000040	17.383796	11.379764	-22.443175	1.000000
[LeftArm]
# Tx<tab>Ty<tab>Tz<tab>Rx<tab>Ry<tab>Rz<tab>BoneScaleFactor<CR>
12	-0.000001	-0.000001	0.000083	57.527335	4.242862	23.189562	1.000000
13	0.000006	0.000083	-0.000124	56.417100	1.758819	-1.189952	1.000000
14	-0.000083	-0.000064	0.000048	55.207593	0.686004	-10.727340	1.000000
15	-0.000003	-0.000022	-0.000132	56.036503	0.029010	-0.025342	1.000000
[LeftForeArm]
# Tx<tab>Ty<tab>Tz<tab>Rx<tab>Ry<tab>Rz<tab>BoneScaleFactor<CR>
12	-0.000081	0.000111	-0.000039	-0.031493	-0.155448	24.408121	1.000000
13	-0.000090	0.000157	-0.000039	-0.141491	-0.298491	52.233952	1.000001
14	-0.000111	-0.000011	0.000038	-0.179441	-0.325033	59.308037	1.000000
15	-0.000116	-0.000090	0.000114	-0.106107	-0.266425	44.937540	1.000000
[LeftHand]
# Tx<tab>Ty<tab>Tz<tab>Rx<tab>Ry<tab>Rz<tab>BoneScaleFactor<CR>
12	0.000081	0.000212	0.000001	17.263266	-20.911673	14.741978	1.000001
13	0.000083	0.000199	0.000002	7.021854	-5.868632	22.527445	1.000001
14	0.000041	0.000127	0.000153	8.875803	0.940720	26.536425	1.000000
15	0.000042	0.000148	0.000001	18.253743	-8.793577	24.354986	1.000001
[LeftHandIndex1]
# Tx<tab>Ty<tab>Tz<tab>Rx<tab>Ry<tab>Rz<tab>BoneScaleFactor<CR>
12	0.000038	0.000061	-0.000076	-0.000000	0.000003	-0.000002	1.000001
13	0.000000	0.000268	0.000076	0.000003	0.000002	-0.000003	1.000001
14	0.000000	0.000235	0.000076	-0.000000	0.000001	-0.000000	1.000001
15	-0.000038	0.000325	-0.000076	-0.000000	0.000000	-0.000001	1.000001
[LeftHandIndex2]
# Tx<tab>Ty<tab>Tz<tab>Rx<tab>Ry<tab>Rz<tab>BoneScaleFactor<CR>
12	0.000153	0.000010	-0.000000	-0.000000	-0.000002	-0.000000	1.000000
13	-0.000038	0.000063	-0.000000	0.000000	0.000002	0.000003	1.000001
14	-0.000038	0.000006	-0.000153	0.000000	0.000002	0.000004	1.000000
15	-0.000000	-0.000035	-0.000000	0.000000	-0.000000	0.000003	1.000000
[LeftHandIndex3]
# Tx<tab>Ty<tab>Tz<tab>Rx<tab>Ry<tab>Rz<tab>BoneScaleFactor<CR>
12	0.000038	0.000014	0.000038	0.000000	-0.000001	0.000000	1.000000
13	0.000039	0.000184	-0.000001	-0.000000	0.000001	-0.000000	1.000001
14	0.000019	0.000164	-0.000000	0.000000	0.000000	0.000000	1.000000
15	0.000096	0.000009	0.000076	0.000000	-0.000001	0.000000	1.000000
[LeftHandIndex4]
# Tx<tab>Ty<tab>Tz<tab>Rx<tab>Ry<tab>Rz<tab>BoneScaleFactor<CR>
12	-0.000000	-0.000051	0.000153	0.000001	-0.000003	-0.000001	1.000001
13	-0.000114	0.000037	0.000153	-0.000003	0.000000	0.000001	1.000001
14	-0.000076	0.000098	-0.000000	-0.000001	-0.000001	-0.000000	1.000001
15	0.000038	0.000156	-0.000000	0.000000	-0.000003	0.000000	1.000000
[LeftHandThumb1]
# Tx<tab>Ty<tab>Tz<tab>Rx<tab>Ry<tab>Rz<tab>BoneScaleFactor<CR>
12	0.000067	-0.000029	-0.000101	-0.000001	0.000004	0.000002	1.000001
13	0.000041	0.000066	0.000042	-0.000003	-0.000000	0.000000	1.000001
14	0.000037	0.000181	0.000062	-0.000001	0.000001	0.000003	1.000001
15	0.000020	0.000186	-0.000093	-0.000003	-0.000000	0.000000	1.000001
[LeftHandThumb2]
# Tx<tab>Ty<tab>Tz<tab>Rx<tab>Ry<tab>Rz<tab>BoneScaleFactor<CR>
12	0.000056	0.000031	-0.000247	0.000008	0.000000	-0.000001	1.000001
13	0.000027	0.000122	-0.000103	0.000006	0.000000	0.000002	1.000001
14	-0.000025	0.000099	-0.000090	0.000005	0.000002	0.000009	1.000000
15	0.000087	0.000019	0.000065	0.000002	-0.000002	0.000001	1.000000
[LeftHandThumb3]
# Tx<tab>Ty<tab>Tz<tab>Rx<tab>Ry<tab>Rz<tab>BoneScaleFactor<CR>
12	0.000020	-0.000117	-0.000020	0.000004	0.000001	-0.000004	1.000001
13	0.000066	0.000125	-0.000028	0.000004	0.000002	-0.000005	1.000001
14	0.000013	0.000098	-0.000013	0.000000	0.000000	-0.000003	1.000000
15	0.000010	0.000170	-0.000010	0.000000	0.000001	-0.000004	1.000000
[LeftHandThumb4]
# Tx<tab>Ty<tab>Tz<tab>Rx<tab>Ry<tab>Rz<tab>BoneScaleFactor<CR>
12	0.000008	0.000167	-0.000046	0.000000	-0.000000	-0.000000	1.000000
13	0.000086	0.000170	0.000028	-0.000000	0.000001	-0.000001	1.000000
14	-0.000073	0.000006	-0.000041	-0.000000	-0.000000	0.000001	1.000000
15	0.000002	0.000003	0.000037	0.000000	0.000000	-0.000001	1.000000
[RightShoulder]
# Tx<tab>Ty<tab>Tz<tab>Rx<tab>Ry<tab>Rz<tab>BoneScaleFactor<CR>
12	-0.000034	0.000017	0.000188	-9.447522	-2.826071	-19.314466	1.000000
13	-0.000091	-0.000020	0.000447	-10.496816	-3.211390	-20.421144	1.000001
14	0.000012	0.000088	0.000031	-10.201971	-3.076115	-19.995575	1.000000
15	0.000004	-0.000022	0.000112	-9.118243	-2.494033	-17.508907	1.000000
[RightArm]
# Tx<tab>Ty<tab>Tz<tab>Rx<tab>Ry<tab>Rz<tab>BoneScaleFactor<CR>
12	-0.000040	0.000021	-0.000139	15.767117	3.257880	10.992003	1.000000
13	-0.000033	-0.000101	-0.000194	18.143366	2.661432	12.385180	1.000000
14	-0.000044	0.000025	-0.000035	19.355307	2.475591	13.253283	0.999999
15	-0.000040	-0.000017	-0.000215	18.281299	2.816112	12.808605	1.000000
[RightForeArm]
# Tx<tab>Ty<tab>Tz<tab>Rx<tab>Ry<tab>Rz<tab>BoneScaleFactor<CR>
12	0.000064	-0.000184	-0.000001	0.003009	0.037738	5.856307	1.000000
13	-0.000064	-0.000355	-0.000002	0.003115	0.038510	5.971175	1.000001
14	0.000038	0.000038	0.000038	0.002931	0.037106	5.752513	1.000000
15	0.000024	-0.000209	-0.000001	0.002585	0.034476	5.353346	1.000001
[RightHand]
# Tx<tab>Ty<tab>Tz<tab>Rx<tab>Ry<tab>Rz<tab>BoneScaleFactor<CR>
12	-0.000038	0.000034	0.000077	-2.451974	1.180017	-0.344051	1.000000
13	0.000079	-0.000191	0.000116	-0.462425	2.414107	-0.476047	1.000001
14	-0.000078	0.000182	-0.000001	1.051652	3.430567	-1.163980	1.000000
15	0.000077	-0.000064	0.000039	1.884230	3.878745	-2.315864	1.000000
[RightHandIndex1]
# Tx<tab>Ty<tab>Tz<tab>Rx<tab>Ry<tab>Rz<tab>BoneScaleFactor<CR>
12	-0.000019	-0.000104	-0.000076	-0.000000	0.000002	-0.000000	1.000000
13	0.000018	-0.000110	-0.000076	-0.000000	-0.000001	-0.000001	1.000001
14	-0.000095	0.000055	-0.000038	-0.000000	0.000001	-0.000003	1.000000
15	-0.000096	-0.000014	0.000000	-0.000000	0.000003	-0.000001	1.000000
[RightHandIndex2]
# Tx<tab>Ty<tab>Tz<tab>Rx<tab>Ry<tab>Rz<tab>BoneScaleFactor<CR>
12	0.000038	0.000015	-0.000000	-0.000000	-0.000000	-0.000003	1.000000
13	-0.000038	0.000000	0.000000	0.000007	0.000001	-0.000002	1.000000
14	0.000000	-0.000001	-0.000000	-0.000007	-0.000001	-0.000002	0.999999
15	-0.000038	-0.000020	-0.000153	0.000007	0.000004	-0.000000	1.000000
[RightHandIndex3]
# Tx<tab>Ty<tab>Tz<tab>Rx<tab>Ry<tab>Rz<tab>BoneScaleFactor<CR>
12	-0.000019	-0.000182	-0.000076	-0.000000	0.000004	-0.000001	1.000001
13	-0.000019	-0.000049	-0.000038	0.000007	-0.000001	0.000003	1.000001
14	-0.000019	-0.000169	-0.000038	-0.000000	0.000001	-0.000000	1.000001
15	0.000057	-0.000033	0.000000	-0.000000	0.000001	-0.000003	1.000001
[RightHandIndex4]
# Tx<tab>Ty<tab>Tz<tab>Rx<tab>Ry<tab>Rz<tab>BoneScaleFactor<CR>
12	-0.000000	-0.000008	0.000153	-0.000003	0.000002	0.000001	1.000000
13	-0.000038	-0.000031	0.000076	-0.000003	0.000002	-0.000000	1.000001
14	-0.000000	-0.000008	-0.000000	-0.000003	0.000000	0.000001	1.000000
15	0.000038	-0.000011	0.000076	-0.000003	0.000000	-0.000000	1.000000
[RightHandThumb1]
# Tx<tab>Ty<tab>Tz<tab>Rx<tab>Ry<tab>Rz<tab>BoneScaleFactor<CR>
12	-0.000071	-0.000010	-0.000081	-0.000001	-0.000004	0.000000	1.000000
13	0.000022	-0.000115	-0.000096	-0.000000	-0.000000	0.000002	1.000001
14	-0.000011	-0.000057	0.000010	0.000000	-0.000003	-0.000002	1.000000
15	0.000003	-0.000005	-0.000003	0.000000	-0.000002	-0.000000	1.000000
[RightHandThumb2]
# Tx<tab>Ty<tab>Tz<tab>Rx<tab>Ry<tab>Rz<tab>BoneScaleFactor<CR>
12	0.000082	-0.000007	-0.000081	0.000000	-0.000000	0.000000	1.000000
13	0.000061	0.000050	-0.000019	0.000001	-0.000001	0.000000	1.000001
14	-0.000012	0.000089	-0.000029	0.000003	-0.000001	0.000001	1.000000
15	0.000044	-0.000007	-0.000005	0.000000	0.000002	-0.000000	1.000000
[RightHandThumb3]
# Tx<tab>Ty<tab>Tz<tab>Rx<tab>Ry<tab>Rz<tab>BoneScaleFactor<CR>
12	-0.000006	0.000084	0.000121	0.000004	0.000004	-0.000001	1.000000
13	0.000097	-0.000026	0.000131	-0.000000	0.000003	-0.000000	1.000000
14	0.000062	0.000019	0.000092	0.000000	0.000003	-0.000002	1.000000
15	-0.000076	0.000000	0.000076	0.000004	0.000004	-0.000001	1.000000
[RightHandThumb4]
# Tx<tab>Ty<tab>Tz<tab>Rx<tab>Ry<tab>Rz<tab>BoneScaleFactor<CR>
12	0.000235	-0.000007	-0.000005	0.000001	0.000001	0.000000	1.000000
13	0.000098	0.000053	-0.000018	-0.000001	-0.000001	-0.000001	1.000001
14	0.000076	0.000000	-0.000038	0.000000	0.000001	-0.000001	1.000000
15	0.000087	0.000026	-0.000009	-0.000001	0.000003	-0.000001	1.000000
[LeftUpLeg]
# Tx<tab>Ty<tab>Tz<tab>Rx<tab>Ry<tab>Rz<tab>BoneScaleFactor<CR>
12	-0.000020	-0.000038	-0.000071	23.437613	-10.159115	-6.249378	1.000000
13	-0.000009	0.000019	-0.000005	22.729163	-13.400478	-8.794081	1.000000
14	-0.000029	-0.000000	0.000082	20.428925	-16.113441	-10.670638	1.000000
15	0.000000	-0.000029	0.000076	17.956814	-18.152631	-12.178923	1.000000
[LeftLeg]
# Tx<tab>Ty<tab>Tz<tab>Rx<tab>Ry<tab>Rz<tab>BoneScaleFactor<CR>
12	-0.000036	0.000019	-0.000065	5.131675	-6.337394	-4.154924	1.000000
13	0.000041	-0.000057	-0.000103	3.279785	1.919604	-4.966393	1.000000
14	0.000033	0.000019	0.000130	2.209207	9.618154	-3.583021	1.000000
15	-0.000041	0.000019	-0.000049	1.562582	14.804397	-3.008533	1.000000
[LeftFoot]
# Tx<tab>Ty<tab>Tz<tab>Rx<tab>Ry<tab>Rz<tab>BoneScaleFactor<CR>
12	0.000005	0.000000	-0.000076	-12.474003	2.656987	-13.348432	1.000000
13	-0.000123	-0.000077	-0.000053	-11.265353	-1.133345	-14.370134	1.000000
14	-0.000059	-0.000152	0.000015	-8.078401	-4.305612	-14.360483	1.000000
15	0.000009	0.000000	-0.000046	-6.912823	-5.135293	-13.783724	1.000000
[LeftToeBase]
# Tx<tab>Ty<tab>Tz<tab>Rx<tab>Ry<tab>Rz<tab>BoneScaleFactor<CR>
12	-0.000013	0.000037	0.000032	-0.000001	-3.940965	-0.000001	1.000000
13	0.000019	0.000041	-0.000057	0.000011	-4.631003	0.000017	1.000000
14	-0.000032	-0.000042	0.000032	-0.000001	-7.251108	0.000021	1.000000
15	-0.000025	-0.000040	0.000006	0.000003	-8.906671	0.000012	1.000000
[LeftToe_End]
# Tx<tab>Ty<tab>Tz<tab>Rx<tab>Ry<tab>Rz<tab>BoneScaleFactor<CR>
12	0.000001	-0.000038	-0.000002	-0.000000	-0.000000	0.000001	1.000000
13	0.000032	-0.000038	0.000013	0.000000	-0.000001	0.000003	1.000000
14	-0.000029	0.000038	0.000002	-0.000000	-0.000001	0.000004	1.000000
15	-0.000030	0.000038	0.000001	0.000000	-0.000000	0.000003	1.000000
[RightUpLeg]
# Tx<tab>Ty<tab>Tz<tab>Rx<tab>Ry<tab>Rz<tab>BoneScaleFactor<CR>
12	-0.000005	-0.000028	-0.000071	-11.495518	-6.198492	0.790717	1.000000
13	-0.000023	-0.000048	-0.000005	-9.935261	-6.817098	1.045676	1.000000
14	0.000004	-0.000028	0.000082	-7.691450	-6.532897	1.370381	1.000000
15	-0.000014	-0.000076	0.000000	-7.532089	-5.535549	2.165446	1.000000
[RightLeg]
# Tx<tab>Ty<tab>Tz<tab>Rx<tab>Ry<tab>Rz<tab>BoneScaleFactor<CR>
12	0.000036	-0.000019	0.000027	-3.815352	-23.524045	13.017909	1.000000
13	0.000007	0.000057	-0.000081	-4.060335	-21.842541	14.475734	1.000000
14	0.000031	0.000019	0.000081	-3.763863	-19.176360	13.560599	1.000000
15	-0.000043	0.000019	0.000016	-1.311692	-17.321680	8.509892	1.000000
[RightFoot]
# Tx<tab>Ty<tab>Tz<tab>Rx<tab>Ry<tab>Rz<tab>BoneScaleFactor<CR>
12	0.000009	-0.000019	0.000137	-13.897787	35.898216	-1.664847	1.000000
13	-0.000036	0.000000	-0.000083	-16.322726	33.665106	-4.856522	1.000000
14	0.000008	-0.000000	0.000198	-18.695296	26.626558	-8.104805	1.000000
15	-0.000000	-0.000000	0.000030	-14.789985	21.609699	-6.464402	1.000000
[RightToeBase]
# Tx<tab>Ty<tab>Tz<tab>Rx<tab>Ry<tab>Rz<tab>BoneScaleFactor<CR>
12	-0.000038	0.000003	0.000057	1.537393	-0.071091	-0.022219	1.000000
13	0.000082	-0.000005	-0.000045	3.272657	-5.463299	-0.105554	1.000000
14	-0.000063	0.000005	0.000083	0.000009	-12.513964	0.000001	0.999999
15	-0.000019	-0.000005	0.000019	0.000005	-13.272474	0.000009	1.000000
[RightToe_End]
# Tx<tab>Ty<tab>Tz<tab>Rx<tab>Ry<tab>Rz<tab>BoneScaleFactor<CR>
12	-0.000002	0.000000	-0.000001	0.000000	0.000000	0.000001	1.000000
13	0.000069	-0.000000	0.000006	0.000001	-0.000000	0.000000	1.000000
14	-0.000023	0.000001	-0.000002	0.000002	0.000001	0.000000	0.999999
15	0.000009	-0.000005	-0.000000	-0.000001	0.000000	0.000001	1.000000
[EndOfFile]
